# xmcd
#
# Track frame offsets: 
#        150
#        26355
#        43622
#        80645
#        101305
#        136649
#
# Disc length: 2470 seconds
#
# Revision: 0
# Processed by: cddbd v1.5.2PL0 Copyright (c) Steve Scherf et al.
# Submitted via: ExactAudioCopyFreeDBPlugin 1.0
#
DISCID=3b09a406
DTITLE=Cash, Johnny - The Complete Releases 1957-1962 [CD7]
DYEAR=1961
DGENRE=Country
TTITLE0=Sunrise
TTITLE1=Painted Desert
TTITLE2=On The Trail
TTITLE3=Sunset
TTITLE4=Cloudburst
TTITLE5=A Day In The Grand Canyon
EXTD=
EXTT0=
EXTT1=
EXTT2=
EXTT3=
EXTT4=
EXTT5=
PLAYORDER=
